HIERARCHY
ROOT Hips
{
  OFFSET -4.34798 96.3774 -17.8012
  CHANNELS 6 Xposition Yposition Zposition Zrotation Xrotation Yrotation
  JOINT ToSpine
  {
    OFFSET -2.69724 7.43032 -0.144315
    CHANNELS 3 Zrotation Xrotation Yrotation
    JOINT Spine
    {
      OFFSET -0.0310711 10.7595 1.96963
      CHANNELS 3 Zrotation Xrotation Yrotation
      JOINT Spine1
      {
        OFFSET 13.1342 3.43533 0.764692
        CHANNELS 3 Zrotation Xrotation Yrotation
        JOINT Neck
        {
          OFFSET 29.8703 7.82586 -0.130764
          CHANNELS 3 Zrotation Xrotation Yrotation
          JOINT Head
          {
            OFFSET 9.52751 0.295786 -0.907742
            CHANNELS 3 Zrotation Xrotation Yrotation
            End Site
            {
              OFFSET 16.4037 0.713936 2.7358
            }
          }
        }
        JOINT LeftShoulder
        {
          OFFSET 27.5574 4.95586 2.47156
          CHANNELS 3 Zrotation Xrotation Yrotation
          JOINT LeftArm
          {
            OFFSET 1.20734 -0.998971 20.1238
            CHANNELS 3 Zrotation Xrotation Yrotation
            JOINT LeftForeArm
            {
              OFFSET 26.8049 -0.0536703 -0.155908
              CHANNELS 3 Zrotation Xrotation Yrotation
              JOINT LeftHand
              {
                OFFSET 26.6817 0 0.320147
                CHANNELS 3 Zrotation Xrotation Yrotation
                End Site
                {
                  OFFSET 18.6119 0 0.382219
                }
              }
            }
          }
        }
        JOINT RightShoulder
        {
          OFFSET 27.5927 4.71444 -2.65209
          CHANNELS 3 Zrotation Xrotation Yrotation
          JOINT RightArm
          {
            OFFSET 2.83739 -1.17114 -18.7564
            CHANNELS 3 Zrotation Xrotation Yrotation
            JOINT RightForeArm
            {
              OFFSET 28.839 -0.0548439 1.22491
              CHANNELS 3 Zrotation Xrotation Yrotation
              JOINT RightHand
              {
                OFFSET 26.5114 0 -0.101894
                CHANNELS 3 Zrotation Xrotation Yrotation
                End Site
                {
                  OFFSET 18.2168 0 0
                }
              }
            }
          }
        }
      }
    }
  }
  JOINT LeftUpLeg
  {
    OFFSET -4.76168 -1.9167 -10.2353
    CHANNELS 3 Zrotation Xrotation Yrotation
    JOINT LeftLeg
    {
      OFFSET 2.55951 -42.0585 -8.02213
      CHANNELS 3 Zrotation Xrotation Yrotation
      JOINT LeftFoot
      {
        OFFSET 3.16357 -42.5282 -3.95426
        CHANNELS 3 Zrotation Xrotation Yrotation
        JOINT LeftToeBase
        {
          OFFSET 0.346054 -6.02161 12.8035
          CHANNELS 3 Zrotation Xrotation Yrotation
          End Site
          {
            OFFSET 0.134235 -1.35082 5.13018
          }
        }
      }
    }
  }
  JOINT RightUpLeg
  {
    OFFSET -4.94151 -1.41743 10.6446
    CHANNELS 3 Zrotation Xrotation Yrotation
    JOINT RightLeg
    {
      OFFSET -2.56294 -42.0364 -7.94377
      CHANNELS 3 Zrotation Xrotation Yrotation
      JOINT RightFoot
      {
        OFFSET -3.0952 -42.555 -4.02241
        CHANNELS 3 Zrotation Xrotation Yrotation
        JOINT RightToeBase
        {
          OFFSET -0.0828122 -6.13587 12.8035
          CHANNELS 3 Zrotation Xrotation Yrotation
          End Site
          {
            OFFSET -0.131328 -1.35082 5.13018
          }
        }
      }
    }
  }
}
MOTION
Frames:	13
Frame Time:	0.0333333
-4.31334 96.3642 -17.834 67.6317 -34.2405 -12.7013 -70.1915 0 88.8779 55.0066 68.1934 26.6893 8.34734 19.448 4.18866 -122.532 34.0561 156.058 174.289 77.9236 -149.686 0.78747 -12.3118 -21.904 -65.82 43.8059 -130.992 29.717 -10.0624 -106.252 0.420957 0.000576111 0.35866 -1.46356 5.85687 39.7322 -123.93 -17.0828 78.9369 22.1473 0.0770244 90.1379 0.58676 0.000331118 0.0646653 -59.4165 6.67172 100.94 0.0274319 26.0525 -4.4326 0.500022 -9.71883 -0.880384 3.17145 -8.84402 8.74558 -49.0502 -8.70486 80.3566 1.25644 18.1682 2.41457 -4.49406 3.18993 0.607855 0.388333 -5.83875 2.70553 
-4.37108 96.3791 -17.7748 67.679 -34.2989 -12.6916 -70.1915 0 88.8779 54.8937 68.2342 26.7888 8.31379 19.5259 4.1126 -121.886 34.1156 155.847 172.295 77.9914 -147.432 0.815457 -12.0845 -21.8763 -66.2208 43.1111 -132.243 26.4904 -8.88103 -106.438 0.420957 0.000576111 0.35866 -1.58516 6.2282 40.0783 -123.518 -16.7632 78.6463 21.7575 -0.0579591 89.5685 0.58676 0.000331118 0.0646653 -59.6709 6.68273 101.032 0.06032 25.6661 -4.41449 0.58296 -9.56774 -0.872806 3.22486 -8.91322 8.61751 -49.1271 -8.66733 80.3222 1.32026 18.0933 2.50954 -4.76325 3.42518 0.64164 0.467546 -6.29315 2.58553 
-4.45352 96.3952 -17.6623 67.6459 -34.1765 -12.5923 -70.1915 0 88.8779 53.5511 68.1072 27.9807 8.78871 19.6922 3.89689 -120.932 33.6348 154.308 175.192 78.2384 -149.647 0.795148 -12.3425 -21.3262 -66.5599 42.0956 -134.37 24.7063 -8.51624 -107.06 0.420957 0.000576111 0.35866 -1.55893 5.81179 41.5179 -123.257 -16.0523 79.2126 23.0703 -0.0283929 89.6223 0.58676 0.000331118 0.0646653 -59.8569 6.92042 101.267 -0.000652755 25.1799 -4.5633 0.874433 -9.56442 -0.886331 3.01173 -8.44746 8.17428 -49.2383 -8.5797 80.2595 1.44678 17.8526 2.12985 -4.70984 3.43057 0.633788 0.430752 -6.22397 2.84614 
-4.46596 96.446 -17.6272 67.7178 -34.1456 -12.6545 -70.1915 0 88.8779 52.9243 68.0235 28.5653 9.12761 19.7763 3.56445 -121.103 33.0722 155.062 175.161 77.4448 -149.025 0.805277 -12.3096 -20.9711 -66.1353 41.8816 -135.634 24.4999 -8.65638 -107.489 0.420957 0.000576111 0.35866 -1.50611 5.47491 42.2848 -122.995 -15.4829 79.8473 22.9334 -0.374562 88.98 0.58676 0.000331118 0.0646653 -59.7186 6.84785 101.247 0.129782 25.4613 -4.87303 0.0229748 -9.84527 -0.869336 2.62546 -7.83913 8.52976 -49.4385 -8.67207 80.226 1.44986 17.6051 2.02536 -4.06803 3.10211 0.545212 0.260236 -5.28826 3.12747 
-4.52946 96.4565 -17.6305 67.7002 -34.1351 -12.5794 -70.1915 0 88.8779 53.5063 67.9251 27.9079 8.8846 19.4021 4.32148 -122.667 33.9187 158.248 168.433 76.7287 -143.229 0.837316 -11.9201 -21.7706 -65.808 41.1361 -135.454 25.3784 -9.38496 -108.178 0.420957 0.000576111 0.35866 -1.53891 5.86283 40.954 -122.948 -16.6467 79.4838 23.3003 -0.298887 89.1192 0.58676 0.000331118 0.0646653 -59.7686 6.89861 101.224 0.169412 25.2662 -4.8196 -0.0534866 -9.75276 -0.860907 2.81292 -8.15725 8.37982 -49.3384 -8.49822 80.3221 1.4055 17.9512 2.41301 -5.34099 3.60623 0.727256 0.544391 -6.42415 2.03236 
-4.54605 96.3948 -17.6639 67.8077 -34.1137 -12.5486 -70.1915 0 88.8779 53.452 67.8965 27.86 8.9044 19.303 4.63602 -123.081 34.2133 159.169 166.022 76.5068 -141.087 0.824673 -11.9664 -22.2006 -64.9841 40.4578 -134.799 25.219 -9.7765 -109.026 0.420957 0.000576111 0.35866 -1.55388 6.0926 40.175 -123.503 -17.1496 78.8943 23.6544 -0.26174 89.2097 0.58676 0.000331118 0.0646653 -59.8489 6.92304 101.234 0.15082 25.287 -3.44454 -0.734664 -11.2049 -0.95503 1.94551 -5.91002 5.70815 -49.3675 -8.65354 80.2692 1.48034 18.0662 1.83172 -6.44048 3.47368 0.90789 0.480565 -7.00846 3.47816 
-4.54682 96.3686 -17.6796 67.7439 -34.1512 -12.6218 -70.1915 0 88.8779 52.959 67.8492 28.0573 8.90573 19.2107 5.12324 -123.112 34.2084 159.213 166.974 76.565 -141.775 0.813411 -12.0048 -22.59 -63.743 39.9381 -133.862 26.7319 -10.4838 -109.066 0.420957 0.000576111 0.35866 -1.48707 5.86613 40.0825 -123.55 -17.181 79.5861 23.2967 -0.122601 89.4642 0.58676 0.000331118 0.0646653 -59.8519 6.95698 101.331 0.0398641 25.2206 -3.51552 -0.381786 -11.2006 -0.9664 1.97243 -6.02138 5.90256 -49.3558 -8.7022 80.2381 1.57608 18.0365 2.23359 -7.37381 3.61739 1.05416 0.588125 -7.37708 2.9508 
-4.56491 96.3553 -17.7052 67.5946 -34.2264 -12.787 -70.1915 0 88.8779 53.2939 67.9471 28.0633 8.52858 19.3803 4.69891 -122.28 33.9242 157.796 169.887 76.9981 -144.06 0.815099 -12.0044 -22.4906 -61.9845 39.9007 -133.184 27.3309 -10.6049 -108.806 0.420957 0.000576111 0.35866 -1.51951 5.98866 40.065 -124.01 -16.9135 79.188 22.9116 -0.11234 89.7654 0.58676 0.000331118 0.0646653 -59.7414 6.99957 101.443 -0.149022 25.3295 -3.59082 -0.181708 -11.2163 -0.973932 1.94953 -6.07022 6.25615 -49.1644 -8.75812 80.2321 1.60691 18.1155 2.54483 -7.01035 3.34745 1.00022 0.577802 -6.88126 2.35668 
-4.50745 96.3274 -17.7491 67.689 -34.296 -12.7442 -70.1915 0 88.8779 53.3982 68.0753 28.0933 8.49384 19.4979 4.66877 -122.193 33.8729 157.352 171.175 77.1849 -145.394 0.787151 -12.2232 -22.5111 -60.5777 40.3162 -132.566 27.4067 -10.3091 -108.253 0.420957 0.000576111 0.35866 -1.54496 6.21971 39.4862 -124.515 -16.9977 78.4369 21.9707 0.195919 90.0451 0.58676 0.000331118 0.0646653 -59.7841 7.07776 101.544 -0.263631 25.5408 -3.76442 -0.443251 -11.6275 -1.00058 1.77514 -5.87292 6.73253 -49.1132 -8.83796 80.2009 1.61669 18.3855 2.32932 -6.96547 3.13143 0.996801 0.505907 -6.72313 2.8168 
-4.47562 96.3264 -17.772 67.8032 -34.1655 -12.7139 -70.1915 0 88.8779 53.4947 68.1402 27.9547 8.48298 19.534 4.64181 -122.199 33.8932 156.988 171.793 77.3536 -146.099 0.769179 -12.3234 -22.7772 -59.8134 40.3985 -131.915 28.2774 -10.2921 -107.592 0.420957 0.000576111 0.35866 -1.51654 6.12223 39.4434 -124.847 -16.893 78.2745 21.708 0.249831 90.4671 0.58676 0.000331118 0.0646653 -59.8487 6.94976 101.534 -0.253761 25.5188 -4.14921 -0.412093 -11.4959 -0.99039 1.91239 -6.26099 7.26318 -49.0515 -8.88182 80.2714 1.46626 18.6789 2.7362 -6.7877 3.15395 0.96856 0.638627 -6.9019 1.79085 
-4.41462 96.3043 -17.7874 67.9698 -34.0769 -12.6552 -70.1915 0 88.8779 53.1224 68.0374 28.3837 8.93493 19.5454 4.48042 -122.502 34.0823 157.092 170.96 77.4128 -145.324 0.776066 -12.2462 -22.9453 -59.3764 40.6464 -131.665 28.1454 -10.0433 -107.276 0.420957 0.000576111 0.35866 -1.50836 6.15197 39.1868 -125.11 -17.137 78.1715 22.4765 0.306844 90.5089 0.58676 0.000331118 0.0646653 -59.9834 6.84734 101.512 -0.213615 25.5143 -3.91191 -0.477109 -11.7903 -1.01358 1.71511 -5.72102 6.58426 -48.9682 -9.04675 80.2626 1.42324 19.1306 2.22083 -6.8992 2.92211 0.990185 0.559183 -7.0755 2.80621 
-4.34478 96.273 -17.8193 68.0515 -33.9531 -12.5929 -70.1915 0 88.8779 53.4278 67.9917 28.1388 8.82328 19.4779 4.37854 -122.366 34.0945 157.028 170.752 77.4349 -144.932 0.766194 -12.3012 -23.0834 -59.4608 40.5527 -131.001 28.3356 -10.049 -107.153 0.420957 0.000576111 0.35866 -1.52637 6.19125 39.3081 -124.708 -17.0123 78.3233 22.2865 0.249517 90.3815 0.58676 0.000331118 0.0646653 -59.9517 6.83185 101.51 -0.253021 25.6529 -3.85403 -0.342562 -11.8194 -1.01965 1.85857 -5.87103 6.1382 -48.7768 -9.09635 80.3395 1.28033 19.626 1.92055 -6.74825 2.66525 0.971522 0.522958 -6.9999 3.04677 
-4.31592 96.2617 -17.7902 67.9629 -33.8051 -12.5967 -70.1915 0 88.8779 53.2604 67.9177 28.2895 8.73738 19.4455 4.36185 -122.305 34.0236 156.704 170.952 77.4761 -145.101 0.745936 -12.4591 -23.0551 -59.7118 40.5593 -130.606 28.2908 -10.0447 -107.177 0.420957 0.000576111 0.35866 -1.52144 6.11498 39.553 -123.992 -16.6266 78.6554 21.9322 0.206748 90.2938 0.58676 0.000331118 0.0646653 -59.7431 6.86805 101.515 -0.288326 25.8638 -4.27818 -0.131627 -11.5279 -1.00078 2.10036 -6.46791 6.71689 -48.4951 -9.01627 80.5201 1.10508 20.0456 1.8696 -6.5674 2.5116 0.947258 0.561401 -6.93553 2.58253 
